<?xml version="1.0" encoding="UTF-8" standalone="no"?>
<!-- Created with Inkscape (http://www.inkscape.org/) -->

<svg
   xmlns:dc="http://purl.org/dc/elements/1.1/"
   xmlns:cc="http://creativecommons.org/ns#"
   xmlns:rdf="http://www.w3.org/1999/02/22-rdf-syntax-ns#"
   xmlns:svg="http://www.w3.org/2000/svg"
   xmlns="http://www.w3.org/2000/svg"
   xmlns:sodipodi="http://sodipodi.sourceforge.net/DTD/sodipodi-0.dtd"
   xmlns:inkscape="http://www.inkscape.org/namespaces/inkscape"
   version="1.1"
   width="30"
   height="30"
   viewBox="0 0 30 30"
   id="svg2"
   inkscape:version="0.48.5 r10040"
   sodipodi:docname="reload.svg">
  <sodipodi:namedview
     pagecolor="#ffffff"
     bordercolor="#666666"
     borderopacity="1"
     objecttolerance="10"
     gridtolerance="10"
     guidetolerance="10"
     inkscape:pageopacity="0"
     inkscape:pageshadow="2"
     inkscape:window-width="681"
     inkscape:window-height="723"
     id="namedview6"
     showgrid="false"
     inkscape:zoom="7.8666667"
     inkscape:cx="-7.1822034"
     inkscape:cy="15"
     inkscape:window-x="0"
     inkscape:window-y="0"
     inkscape:window-maximized="0"
     inkscape:current-layer="svg2" />
  <metadata
     id="metadata10">
    <rdf:RDF>
      <cc:Work
         rdf:about="">
        <dc:format>image/svg+xml</dc:format>
        <dc:type
           rdf:resource="http://purl.org/dc/dcmitype/StillImage" />
      </cc:Work>
    </rdf:RDF>
  </metadata>
  <defs
     id="defs8" />
  <path
     d="m 23.46,13.657 c -0.693,-4.76 -4.726,-8.414 -9.61,-8.414 -5.373,0 -9.728,4.417 -9.728,9.866 0,5.449 4.355,9.86 9.728,9.86 2.688,0 5.12,-1.11 6.88,-2.89 l -1.642,-1.67 c -1.34,1.36 -3.192,2.2 -5.238,2.2 -4.09,0 -7.406,-3.36 -7.406,-7.51 0,-4.15 3.316,-7.509 7.406,-7.509 3.59,0 6.582,2.59 7.26,6.03 -1.06,0.094 -2.026,0.33 -2.833,0.66 l 3.196,3.24 c 0.396,0.4 1.04,0.4 1.436,0 l 3.19,-3.24 c -0.76,-0.31 -1.66,-0.53 -2.64,-0.634 z"
     inkscape:connector-curvature="0"
     id="path4"
     style="fill:#0088cc;fill-opacity:1" />
</svg>
