<?xml version="1.0" encoding="UTF-8" standalone="no"?>
<!-- Created with Inkscape (http://www.inkscape.org/) -->

<svg
   xmlns:dc="http://purl.org/dc/elements/1.1/"
   xmlns:cc="http://creativecommons.org/ns#"
   xmlns:rdf="http://www.w3.org/1999/02/22-rdf-syntax-ns#"
   xmlns:svg="http://www.w3.org/2000/svg"
   xmlns="http://www.w3.org/2000/svg"
   xmlns:sodipodi="http://sodipodi.sourceforge.net/DTD/sodipodi-0.dtd"
   xmlns:inkscape="http://www.inkscape.org/namespaces/inkscape"
   version="1.1"
   width="30"
   height="30"
   viewBox="0 0 30 30"
   id="svg2"
   inkscape:version="0.48.5 r10040"
   sodipodi:docname="star-full.svg">
  <sodipodi:namedview
     pagecolor="#ffffff"
     bordercolor="#666666"
     borderopacity="1"
     objecttolerance="10"
     gridtolerance="10"
     guidetolerance="10"
     inkscape:pageopacity="0"
     inkscape:pageshadow="2"
     inkscape:window-width="677"
     inkscape:window-height="480"
     id="namedview6"
     showgrid="false"
     inkscape:zoom="7.8666667"
     inkscape:cx="15"
     inkscape:cy="15"
     inkscape:window-x="594"
     inkscape:window-y="8"
     inkscape:window-maximized="0"
     inkscape:current-layer="svg2" />
  <metadata
     id="metadata10">
    <rdf:RDF>
      <cc:Work
         rdf:about="">
        <dc:format>image/svg+xml</dc:format>
        <dc:type
           rdf:resource="http://purl.org/dc/dcmitype/StillImage" />
      </cc:Work>
    </rdf:RDF>
  </metadata>
  <defs
     id="defs8" />
  <path
     d="m 25.82,13.11 c 0.21,-0.194 0.305,-0.497 0.21,-0.787 -0.095,-0.29 -0.345,-0.478 -0.627,-0.513 L 25.4,11.803 18.63,10.913 15.693,4.756 H 15.688 C 15.57,4.494 15.31,4.31 15.003,4.31 c -0.307,0 -0.566,0.184 -0.686,0.446 h -0.006 l -2.93,6.157 -6.77,0.89 v 0.006 c -0.28,0.03 -0.53,0.22 -0.63,0.51 -0.09,0.29 0,0.59 0.21,0.79 l 4.95,4.69 -1.25,6.73 0.007,0.004 c -0.05,0.274 0.05,0.57 0.293,0.744 0.244,0.18 0.56,0.182 0.81,0.043 l 0.005,0.004 5.994,-3.248 6,3.258 0.005,-0.004 c 0.25,0.14 0.565,0.135 0.812,-0.044 0.243,-0.177 0.344,-0.47 0.293,-0.747 l 0.008,-0.01 -1.248,-6.73 4.95,-4.697 c 0.01,0 0,-0.003 0,-0.005 z"
     inkscape:connector-curvature="0"
     id="path4"
     style="fill:#0088cc;fill-opacity:1" />
</svg>
